<?xml version="1.0" encoding="iso-8859-1"?>
<!-- Generator: Adobe Illustrator 19.0.0, SVG Export Plug-In . SVG Version: 6.00 Build 0)  -->
<svg version="1.1" id="Layer_1" xmlns="http://www.w3.org/2000/svg" xmlns:xlink="http://www.w3.org/1999/xlink" x="0px" y="0px"
	 viewBox="0 0 512 512" style="enable-background:new 0 0 512 512;" xml:space="preserve">
<path style="fill:#E2E2E2;" d="M256,512c141.392,0,256-114.608,256-256S397.392,0,256,0S0,114.608,0,256S114.608,512,256,512z"/>
<path style="fill:#FFFFFF;" d="M91.536,159.664L29.36,466.336h453.296l-62.192-306.672H91.536z M178.672,243.632
	c-15.424,0-27.936-12.512-27.936-27.968c0-15.44,12.512-27.968,27.936-27.968s27.936,12.512,27.936,27.968
	C206.592,231.104,194.096,243.632,178.672,243.632z M333.328,243.632c-15.424,0-27.936-12.512-27.936-27.968
	c0-15.44,12.512-27.968,27.936-27.968s27.936,12.512,27.936,27.968C361.264,231.104,348.752,243.632,333.328,243.632z"/>
<path d="M184,65.664c0-11.024,8.976-20,20-20h104c11.024,0,20,8.976,20,20v70h24v-70c0-24.272-19.728-44-44-44H204
	c-24.272,0-44,19.728-44,44v70h24V65.664z"/>
<path style="fill:#ED1C24;" d="M352,135.664h-24H184h-24H71.904L0,490.336h512l-71.904-354.672H352z M29.36,466.336l62.176-306.672
	h328.928l62.176,306.672H29.36z"/>
<circle cx="333.328" cy="215.664" r="27.952"/>
<circle cx="178.672" cy="215.664" r="27.952"/>
<g>
</g>
<g>
</g>
<g>
</g>
<g>
</g>
<g>
</g>
<g>
</g>
<g>
</g>
<g>
</g>
<g>
</g>
<g>
</g>
<g>
</g>
<g>
</g>
<g>
</g>
<g>
</g>
<g>
</g>
</svg>
